<svg xmlns="http://www.w3.org/2000/svg" viewBox="0 0 500 150"><path d="M89.362 109.873q-8.07 0-11.66-4t-3.59-12.9v-5.8h11.66v7.38q0 4.42 2.83 4.42 1.59 0 2.21-.93.62-.93.62-3.14 0-2.9-.69-4.8-.69-1.89-1.76-3.17t-3.83-3.97l-5.11-5.1q-5.93-5.8-5.93-12.84 0-7.59 3.48-11.56 3.49-3.96 10.18-3.96 8.01 0 11.52 4.24 3.52 4.24 3.52 13.28h-12.07l-.07-4.07q0-1.17-.66-1.86-.65-.69-1.82-.69-1.38 0-2.07.76t-.69 2.07q0 2.9 3.31 6l6.9 6.62q2.41 2.35 4 4.46 1.59 2.1 2.55 4.96.97 2.87.97 6.8 0 8.76-3.21 13.28t-10.59 4.52zm16.56 7.87v-7.66h5.79q1.25 0 1.25-1.04 0-.48-.07-.76l-7.87-49.47h11.52l2.28 24.63 1.11 12.56 1.31-12.56 2.69-24.63h11.59l-9.38 53.13q-.49 2.97-1.97 4.38-1.48 1.42-4.66 1.42h-13.59zm46.64-7.87q-14.97 0-14.97-15.18l.07-4h12.07l.07 5.93q0 1.8.69 2.73.69.93 2.28.93 2.41 0 2.41-3.93 0-2.9-1.13-4.56-1.14-1.65-3.63-3.52l-6.41-4.96q-3.32-2.56-4.76-5.28-1.45-2.73-1.45-7.7 0-3.86 2.03-6.58 2.04-2.73 5.42-4.11 3.38-1.38 7.52-1.38 14.7 0 14.7 14.63v.96h-12.49v-1.93q0-1.79-.59-3.07-.59-1.28-1.97-1.28-1.24 0-1.89.73-.66.72-.66 1.97 0 2.76 2.14 4.27l7.45 5.45q4 2.97 6.14 6.46 2.14 3.48 2.14 8.79 0 7.04-4 10.84-4 3.79-11.18 3.79zm29.33 0q-4.76 0-6.56-2-1.79-2-1.79-6.42v-31.53h-3.38v-9.18h3.38v-10.69h11.73v10.69h3.45v9.18h-3.45v28.36q0 1.31.2 1.93.21.62 1.11.62.69 0 1.31-.07.62-.07.83-.07v8.28q-1.04.28-3 .59-1.97.31-3.83.31zm24.77 0q-7.8 0-11.18-4.28-3.38-4.27-3.38-12.76v-20.29q0-6.97 4-10.62 4-3.66 11.18-3.66 14.56 0 14.56 14.28v3.66q0 5.52-.14 8.97h-17.53v9.8q0 2.62.56 4.1.55 1.49 2.34 1.49 1.38 0 1.97-.83.59-.83.69-1.9.1-1.07.1-3.14v-4.9h12.01v2.9q0 8.83-3.42 13.01-3.41 4.17-11.76 4.17zm-2.56-30.7h5.73v-6.49q0-5.45-2.69-5.45-3.04 0-3.04 5.45v6.49zm22.09 30.15v-50.51h11.79v5.87q.83-3.25 2.83-4.83 2-1.59 5.66-1.59 2.97 0 5.14 1.35 2.18 1.34 3.07 3.69 1.52-2.63 3.38-3.83 1.87-1.21 5.18-1.21 5.93 0 8.24 3.62 2.32 3.62 2.32 10.52l-.14 36.92h-12.15v-37.12q0-4.9-2.48-4.9-1.73 0-2.48 1.69-.76 1.69-.76 4.04v36.29h-12.08v-37.12q0-2.14-.45-3.45t-1.89-1.31q-1.87 0-2.63 1.83-.76 1.82-.76 4.38v35.67h-11.79zm68.65 0v-59.27h16.35q6.35 0 9.53 3.52 3.17 3.52 3.24 10.42l.14 27.73q.07 8.77-3.04 13.18-3.1 4.42-10.28 4.42h-15.94zm11.94-10.49h2.07q3.24 0 3.24-3.17v-30.57q0-2-.31-3t-1.14-1.35q-.83-.34-2.55-.34h-1.31v38.43zm36.57 11.04q-15.11 0-15.11-15.66v-20.29q0-7.17 4.03-11.42 4.04-4.24 11.08-4.24t11.07 4.24q4.04 4.25 4.04 11.42v20.29q0 15.66-15.11 15.66zm0-9.31q1.45 0 2.14-1.04.69-1.03.69-2.83v-24.7q0-4.42-2.83-4.42t-2.83 4.42v24.7q0 1.8.69 2.83.69 1.04 2.14 1.04zm34.77 9.31q-8.28 0-11.93-4.21-3.66-4.21-3.66-12.9v-15.59q0-6.56 1.41-10.66 1.42-4.11 4.76-6.18 3.35-2.07 9.29-2.07 6.48 0 10.55 3.38t4.07 9.45v7.73h-12.28v-7.11q0-2-.55-3.07-.55-1.07-2.14-1.07-2.97 0-2.97 4.21v24.5q0 1.72.73 2.93.72 1.21 2.17 1.21t2.17-1.17q.73-1.18.66-3.04l-.07-8.49h12.28v8.83q0 6.21-4.03 9.77-4.04 3.55-10.46 3.55zm32.57 0q-14.97 0-14.97-15.18l.07-4h12.07l.07 5.93q0 1.8.69 2.73.69.93 2.28.93 2.41 0 2.41-3.93 0-2.9-1.14-4.56-1.13-1.65-3.62-3.52l-6.41-4.96q-3.32-2.56-4.77-5.28-1.44-2.73-1.44-7.7 0-3.86 2.03-6.58 2.04-2.73 5.42-4.11 3.38-1.38 7.52-1.38 14.7 0 14.7 14.63v.96h-12.49v-1.93q0-1.79-.59-3.07-.59-1.28-1.97-1.28-1.24 0-1.89.73-.66.72-.66 1.97 0 2.76 2.14 4.27l7.45 5.45q4 2.97 6.14 6.46 2.14 3.48 2.14 8.79 0 7.04-4 10.84-4 3.79-11.18 3.79z" fill="#000000"/></svg>